<mxfile host="app.diagrams.net" modified="2023-08-21T13:17:56.108Z" agent="Mozilla/5.0 (Windows NT 10.0; Win64; x64) AppleWebKit/537.36 (KHTML, like Gecko) Chrome/115.0.0.0 Safari/537.36" etag="v0X0cvSKOTq-vg122uVj" version="21.6.8" type="device">
  <diagram name="Page-1" id="TLjLOKzduUA-YrgLWtCf">
    <mxGraphModel dx="1050" dy="566" grid="1" gridSize="10" guides="1" tooltips="1" connect="1" arrows="1" fold="1" page="1" pageScale="1" pageWidth="850" pageHeight="1100" math="0" shadow="0">
      <root>
        <mxCell id="0" />
        <mxCell id="1" parent="0" />
        <mxCell id="JS1xEZkMi0F9DVnRM_M9-2" value="a = 1&lt;br&gt;b = 100" style="ellipse;whiteSpace=wrap;html=1;aspect=fixed;" vertex="1" parent="1">
          <mxGeometry x="385" y="70" width="80" height="80" as="geometry" />
        </mxCell>
        <mxCell id="JS1xEZkMi0F9DVnRM_M9-3" value="" style="endArrow=classic;html=1;rounded=0;exitX=0.5;exitY=1;exitDx=0;exitDy=0;" edge="1" parent="1" source="JS1xEZkMi0F9DVnRM_M9-2" target="JS1xEZkMi0F9DVnRM_M9-4">
          <mxGeometry width="50" height="50" relative="1" as="geometry">
            <mxPoint x="400" y="320" as="sourcePoint" />
            <mxPoint x="420" y="200" as="targetPoint" />
          </mxGeometry>
        </mxCell>
        <mxCell id="JS1xEZkMi0F9DVnRM_M9-7" style="edgeStyle=orthogonalEdgeStyle;rounded=0;orthogonalLoop=1;jettySize=auto;html=1;entryX=0.5;entryY=0;entryDx=0;entryDy=0;" edge="1" parent="1" source="JS1xEZkMi0F9DVnRM_M9-4" target="JS1xEZkMi0F9DVnRM_M9-6">
          <mxGeometry relative="1" as="geometry" />
        </mxCell>
        <mxCell id="JS1xEZkMi0F9DVnRM_M9-21" style="edgeStyle=orthogonalEdgeStyle;rounded=0;orthogonalLoop=1;jettySize=auto;html=1;" edge="1" parent="1" source="JS1xEZkMi0F9DVnRM_M9-4">
          <mxGeometry relative="1" as="geometry">
            <mxPoint x="270" y="230" as="targetPoint" />
          </mxGeometry>
        </mxCell>
        <mxCell id="JS1xEZkMi0F9DVnRM_M9-4" value="a &amp;gt; b" style="rhombus;whiteSpace=wrap;html=1;" vertex="1" parent="1">
          <mxGeometry x="385" y="190" width="80" height="80" as="geometry" />
        </mxCell>
        <mxCell id="JS1xEZkMi0F9DVnRM_M9-13" style="edgeStyle=orthogonalEdgeStyle;rounded=0;orthogonalLoop=1;jettySize=auto;html=1;entryX=0;entryY=0.5;entryDx=0;entryDy=0;" edge="1" parent="1" source="JS1xEZkMi0F9DVnRM_M9-6" target="JS1xEZkMi0F9DVnRM_M9-12">
          <mxGeometry relative="1" as="geometry" />
        </mxCell>
        <mxCell id="JS1xEZkMi0F9DVnRM_M9-19" style="edgeStyle=orthogonalEdgeStyle;rounded=0;orthogonalLoop=1;jettySize=auto;html=1;entryX=1;entryY=0.5;entryDx=0;entryDy=0;exitX=0.5;exitY=1;exitDx=0;exitDy=0;" edge="1" parent="1" source="JS1xEZkMi0F9DVnRM_M9-6" target="JS1xEZkMi0F9DVnRM_M9-9">
          <mxGeometry relative="1" as="geometry">
            <Array as="points">
              <mxPoint x="570" y="430" />
            </Array>
          </mxGeometry>
        </mxCell>
        <mxCell id="JS1xEZkMi0F9DVnRM_M9-6" value="a/b &amp;gt; 20" style="rhombus;whiteSpace=wrap;html=1;" vertex="1" parent="1">
          <mxGeometry x="530" y="250" width="80" height="80" as="geometry" />
        </mxCell>
        <mxCell id="JS1xEZkMi0F9DVnRM_M9-8" value="Sant" style="text;html=1;align=center;verticalAlign=middle;resizable=0;points=[];autosize=1;strokeColor=none;fillColor=none;" vertex="1" parent="1">
          <mxGeometry x="485" y="188" width="50" height="30" as="geometry" />
        </mxCell>
        <mxCell id="JS1xEZkMi0F9DVnRM_M9-44" style="edgeStyle=orthogonalEdgeStyle;rounded=0;orthogonalLoop=1;jettySize=auto;html=1;" edge="1" parent="1" source="JS1xEZkMi0F9DVnRM_M9-9" target="JS1xEZkMi0F9DVnRM_M9-45">
          <mxGeometry relative="1" as="geometry">
            <mxPoint x="425" y="520" as="targetPoint" />
          </mxGeometry>
        </mxCell>
        <mxCell id="JS1xEZkMi0F9DVnRM_M9-9" value="Skriv a, b" style="rounded=0;whiteSpace=wrap;html=1;" vertex="1" parent="1">
          <mxGeometry x="365" y="400" width="120" height="60" as="geometry" />
        </mxCell>
        <mxCell id="JS1xEZkMi0F9DVnRM_M9-17" style="edgeStyle=orthogonalEdgeStyle;rounded=0;orthogonalLoop=1;jettySize=auto;html=1;entryX=1;entryY=1;entryDx=0;entryDy=0;" edge="1" parent="1" source="JS1xEZkMi0F9DVnRM_M9-12" target="JS1xEZkMi0F9DVnRM_M9-6">
          <mxGeometry relative="1" as="geometry">
            <mxPoint x="600" y="340" as="targetPoint" />
            <Array as="points">
              <mxPoint x="821" y="290" />
              <mxPoint x="821" y="330" />
              <mxPoint x="590" y="330" />
            </Array>
          </mxGeometry>
        </mxCell>
        <mxCell id="JS1xEZkMi0F9DVnRM_M9-12" value="b = b * 2&lt;br&gt;Skriv b" style="rounded=0;whiteSpace=wrap;html=1;" vertex="1" parent="1">
          <mxGeometry x="680" y="260" width="120" height="60" as="geometry" />
        </mxCell>
        <mxCell id="JS1xEZkMi0F9DVnRM_M9-14" value="True" style="text;html=1;align=center;verticalAlign=middle;resizable=0;points=[];autosize=1;strokeColor=none;fillColor=none;" vertex="1" parent="1">
          <mxGeometry x="610" y="250" width="50" height="30" as="geometry" />
        </mxCell>
        <mxCell id="JS1xEZkMi0F9DVnRM_M9-20" value="Falskt" style="text;html=1;align=center;verticalAlign=middle;resizable=0;points=[];autosize=1;strokeColor=none;fillColor=none;" vertex="1" parent="1">
          <mxGeometry x="500" y="430" width="60" height="30" as="geometry" />
        </mxCell>
        <mxCell id="JS1xEZkMi0F9DVnRM_M9-22" value="Falskt" style="text;html=1;align=center;verticalAlign=middle;resizable=0;points=[];autosize=1;strokeColor=none;fillColor=none;" vertex="1" parent="1">
          <mxGeometry x="305" y="190" width="60" height="30" as="geometry" />
        </mxCell>
        <mxCell id="JS1xEZkMi0F9DVnRM_M9-25" style="edgeStyle=orthogonalEdgeStyle;rounded=0;orthogonalLoop=1;jettySize=auto;html=1;" edge="1" parent="1" source="JS1xEZkMi0F9DVnRM_M9-23">
          <mxGeometry relative="1" as="geometry">
            <mxPoint x="130" y="230" as="targetPoint" />
          </mxGeometry>
        </mxCell>
        <mxCell id="JS1xEZkMi0F9DVnRM_M9-37" style="edgeStyle=orthogonalEdgeStyle;rounded=0;orthogonalLoop=1;jettySize=auto;html=1;" edge="1" parent="1" source="JS1xEZkMi0F9DVnRM_M9-23">
          <mxGeometry relative="1" as="geometry">
            <mxPoint x="230" y="360" as="targetPoint" />
          </mxGeometry>
        </mxCell>
        <mxCell id="JS1xEZkMi0F9DVnRM_M9-23" value="b &amp;gt; a" style="rhombus;whiteSpace=wrap;html=1;" vertex="1" parent="1">
          <mxGeometry x="190" y="190" width="80" height="80" as="geometry" />
        </mxCell>
        <mxCell id="JS1xEZkMi0F9DVnRM_M9-26" value="Sant" style="text;html=1;align=center;verticalAlign=middle;resizable=0;points=[];autosize=1;strokeColor=none;fillColor=none;" vertex="1" parent="1">
          <mxGeometry x="140" y="200" width="50" height="30" as="geometry" />
        </mxCell>
        <mxCell id="JS1xEZkMi0F9DVnRM_M9-30" style="edgeStyle=orthogonalEdgeStyle;rounded=0;orthogonalLoop=1;jettySize=auto;html=1;" edge="1" parent="1" source="JS1xEZkMi0F9DVnRM_M9-29">
          <mxGeometry relative="1" as="geometry">
            <mxPoint x="130" y="140" as="targetPoint" />
          </mxGeometry>
        </mxCell>
        <mxCell id="JS1xEZkMi0F9DVnRM_M9-42" style="edgeStyle=orthogonalEdgeStyle;rounded=0;orthogonalLoop=1;jettySize=auto;html=1;entryX=0.5;entryY=0;entryDx=0;entryDy=0;" edge="1" parent="1" source="JS1xEZkMi0F9DVnRM_M9-29" target="JS1xEZkMi0F9DVnRM_M9-41">
          <mxGeometry relative="1" as="geometry" />
        </mxCell>
        <mxCell id="JS1xEZkMi0F9DVnRM_M9-29" value="b &amp;gt; 2 * a" style="rhombus;whiteSpace=wrap;html=1;" vertex="1" parent="1">
          <mxGeometry x="50" y="190" width="80" height="80" as="geometry" />
        </mxCell>
        <mxCell id="JS1xEZkMi0F9DVnRM_M9-31" value="Sant" style="text;html=1;align=center;verticalAlign=middle;resizable=0;points=[];autosize=1;strokeColor=none;fillColor=none;" vertex="1" parent="1">
          <mxGeometry x="90" y="170" width="50" height="30" as="geometry" />
        </mxCell>
        <mxCell id="JS1xEZkMi0F9DVnRM_M9-33" style="edgeStyle=orthogonalEdgeStyle;rounded=0;orthogonalLoop=1;jettySize=auto;html=1;entryX=0;entryY=0.5;entryDx=0;entryDy=0;" edge="1" parent="1" source="JS1xEZkMi0F9DVnRM_M9-32" target="JS1xEZkMi0F9DVnRM_M9-29">
          <mxGeometry relative="1" as="geometry">
            <mxPoint x="50" y="180" as="targetPoint" />
            <Array as="points">
              <mxPoint x="30" y="110" />
              <mxPoint x="30" y="230" />
            </Array>
          </mxGeometry>
        </mxCell>
        <mxCell id="JS1xEZkMi0F9DVnRM_M9-32" value="b = b - 4&lt;br&gt;Skriv b" style="rounded=0;whiteSpace=wrap;html=1;" vertex="1" parent="1">
          <mxGeometry x="70" y="80" width="120" height="60" as="geometry" />
        </mxCell>
        <mxCell id="JS1xEZkMi0F9DVnRM_M9-36" value="Falskt" style="text;html=1;align=center;verticalAlign=middle;resizable=0;points=[];autosize=1;strokeColor=none;fillColor=none;" vertex="1" parent="1">
          <mxGeometry x="90" y="340" width="60" height="30" as="geometry" />
        </mxCell>
        <mxCell id="JS1xEZkMi0F9DVnRM_M9-40" style="edgeStyle=orthogonalEdgeStyle;rounded=0;orthogonalLoop=1;jettySize=auto;html=1;entryX=0;entryY=0.5;entryDx=0;entryDy=0;" edge="1" parent="1" source="JS1xEZkMi0F9DVnRM_M9-38" target="JS1xEZkMi0F9DVnRM_M9-9">
          <mxGeometry relative="1" as="geometry">
            <mxPoint x="350" y="430" as="targetPoint" />
            <Array as="points">
              <mxPoint x="230" y="430" />
            </Array>
          </mxGeometry>
        </mxCell>
        <mxCell id="JS1xEZkMi0F9DVnRM_M9-38" value="a = b + 1" style="rounded=0;whiteSpace=wrap;html=1;" vertex="1" parent="1">
          <mxGeometry x="170" y="360" width="120" height="60" as="geometry" />
        </mxCell>
        <mxCell id="JS1xEZkMi0F9DVnRM_M9-39" value="False" style="text;html=1;align=center;verticalAlign=middle;resizable=0;points=[];autosize=1;strokeColor=none;fillColor=none;" vertex="1" parent="1">
          <mxGeometry x="230" y="290" width="50" height="30" as="geometry" />
        </mxCell>
        <mxCell id="JS1xEZkMi0F9DVnRM_M9-43" style="edgeStyle=orthogonalEdgeStyle;rounded=0;orthogonalLoop=1;jettySize=auto;html=1;" edge="1" parent="1" source="JS1xEZkMi0F9DVnRM_M9-41">
          <mxGeometry relative="1" as="geometry">
            <mxPoint x="290" y="430" as="targetPoint" />
          </mxGeometry>
        </mxCell>
        <mxCell id="JS1xEZkMi0F9DVnRM_M9-41" value="Skriv b" style="rounded=0;whiteSpace=wrap;html=1;" vertex="1" parent="1">
          <mxGeometry x="30" y="440" width="120" height="60" as="geometry" />
        </mxCell>
        <mxCell id="JS1xEZkMi0F9DVnRM_M9-45" value="Return 0" style="rounded=0;whiteSpace=wrap;html=1;" vertex="1" parent="1">
          <mxGeometry x="365" y="490" width="120" height="60" as="geometry" />
        </mxCell>
      </root>
    </mxGraphModel>
  </diagram>
</mxfile>
